<?xml version="1.0" encoding="utf-8"?>
<!-- Generator: Adobe Illustrator 26.0.3, SVG Export Plug-In . SVG Version: 6.00 Build 0)  -->
<svg version="1.1" id="Layer_1" xmlns="http://www.w3.org/2000/svg" xmlns:xlink="http://www.w3.org/1999/xlink" x="0px" y="0px"
	 viewBox="0 0 3197.43 817.38" style="enable-background:new 0 0 3197.43 817.38;" xml:space="preserve">
<style type="text/css">
	.st0{fill:#495A68;}
	.st1{fill:#23110E;}
	.st2{fill:#BF8C61;}
	.st3{fill:#B9C4D8;}
	.st4{fill:#8C8371;}
	.st5{fill:#FFFFFF;}
</style>
<rect x="0" y="0.33" class="st0" width="720" height="720"/>
<polygon class="st1" points="0,0 0,137.69 720,529.29 720,0 "/>
<polygon class="st2" points="368.86,0 368.53,338.13 720,529.29 720,0 "/>
<polygon class="st3" points="0,450.81 206.67,376.53 203.21,323.39 0,226.27 "/>
<polygon class="st3" points="0,544.83 225.49,437.6 256.5,480.41 169.03,720.19 0,720 "/>
<polygon class="st4" points="368.53,338.13 259.94,720.19 720,720 720,529.29 "/>
<g id="Yardscapes">
	<path class="st5" d="M960.97,583.34V719.4h-68.17V583.34L784.98,378.3h72.68l69.08,147.33l68.17-147.33h72.68L960.97,583.34z"/>
	<path class="st5" d="M1059.89,704.86c-15.22-12.04-22.82-30.1-22.82-54.19c0-25.18,8.76-44.22,26.28-57.12
		c17.52-12.9,43.5-19.35,77.94-19.35h57.36l4.2,43.17h-60.37c-13.62,0-23.88,2.78-30.78,8.33c-6.91,5.55-10.36,13.88-10.36,24.98
		c0,9.38,3.55,16.34,10.66,20.88c7.1,4.54,17.77,6.8,31.99,6.8c17.42,0,30.53-2.35,39.34-7.04c8.81-4.69,13.21-11.65,13.21-20.88
		l6.01,27.92c-1.8,9.85-6.01,18.1-12.61,24.75c-6.61,6.65-15.17,11.61-25.68,14.9s-22.67,4.93-36.49,4.93
		C1097.73,722.92,1075.1,716.9,1059.89,704.86z M1196.54,554.01c0-10.79-3.96-19.2-11.86-25.22c-7.91-6.02-19.17-9.03-33.79-9.03
		c-10.41,0-19.72,1.88-27.93,5.63c-8.21,3.75-14.72,8.91-19.52,15.48l-55.56-15.48c6.41-16.89,18.57-30.03,36.49-39.41
		c17.92-9.38,40.19-14.08,66.82-14.08c23.02,0,42.75,3.21,59.17,9.62c16.42,6.41,28.98,15.68,37.69,27.8
		c8.71,12.12,13.06,26.71,13.06,43.75V719.4h-64.57V554.01z"/>
	<path class="st5" d="M1302.06,475.89h70.28V719.4h-70.28V475.89z M1449.82,526.92c-4.81-1.02-10.31-1.52-16.52-1.52
		c-19.22,0-34.14,4.22-44.75,12.67c-10.61,8.45-16.02,20.17-16.22,35.19l-6.31-54.89c9.21-14.7,21.22-26.12,36.04-34.25
		c14.82-8.13,31.13-12.2,48.95-12.2c6.61,0,12.71,0.82,18.32,2.46c5.6,1.64,10.41,4.03,14.42,7.16l-21.62,49.97
		C1458.73,529.46,1454.63,527.94,1449.82,526.92z"/>
	<path class="st5" d="M1521.41,713.42c-12.82-6.8-22.58-16.58-29.28-29.32c-6.71-12.75-10.06-28.27-10.06-46.57v-79.06
		c0-18.3,3.35-33.94,10.06-46.92c6.71-12.98,16.37-22.87,28.98-29.68c12.61-6.8,27.83-10.21,45.65-10.21
		c15.81,0,30.28,3.83,43.4,11.5c13.11,7.67,23.67,18.46,31.68,32.37l-6.31,42.23c0-7.82-1.65-14.46-4.96-19.94
		c-3.3-5.47-8.06-9.66-14.27-12.55c-6.21-2.89-13.81-4.34-22.83-4.34c-13.62,0-24.23,3.56-31.83,10.67
		c-7.61,7.12-11.41,17.09-11.41,29.91v73.43c0,12.51,3.8,22.17,11.41,28.97c7.61,6.8,18.22,10.21,31.83,10.21
		c9.01,0,16.62-1.41,22.83-4.22c6.2-2.82,10.96-6.96,14.27-12.43c3.3-5.47,4.96-12.04,4.96-19.71l4.2,43.4
		c-5.81,13.14-14.97,23.5-27.48,31.08c-12.51,7.58-27.38,11.38-44.6,11.38C1549.64,723.62,1534.22,720.22,1521.41,713.42z
		 M1635.53,378.3h68.78v341.1h-68.78V378.3z"/>
	<path class="st5" d="M1782.65,716.35c-16.12-4.38-29.39-11.03-39.79-19.94c-10.41-8.91-17.82-19.62-22.22-32.14l57.66-22.05
		c6.01,10.48,14.31,18.5,24.93,24.05c10.61,5.55,22.92,8.33,36.94,8.33c15.62,0,27.58-2.38,35.89-7.16
		c8.31-4.77,12.46-11.38,12.46-19.82c0-6.25-2.4-11.18-7.21-14.78c-4.81-3.6-10.81-6.29-18.02-8.09c-7.21-1.8-17.22-3.71-30.03-5.75
		c-1.8-0.31-3.75-0.59-5.86-0.82c-2.1-0.23-4.26-0.66-6.46-1.29c-0.6,0-1.15-0.08-1.65-0.23c-0.5-0.15-1.15-0.31-1.95-0.47
		c-17.62-2.97-32.44-6.57-44.45-10.79c-12.01-4.22-21.98-11.06-29.88-20.53c-7.91-9.46-11.86-22.17-11.86-38.12
		c0-15.79,4.21-29.24,12.61-40.35c8.41-11.1,20.62-19.59,36.64-25.45c16.02-5.86,35.34-8.8,57.96-8.8c19.02,0,35.89,2.07,50.61,6.22
		c14.72,4.15,26.98,10.25,36.79,18.3c9.81,8.06,17.12,17.95,21.92,29.68l-58.26,21.58c-5.01-8.91-11.86-15.72-20.57-20.41
		c-8.71-4.69-18.97-7.04-30.78-7.04c-13.81,0-24.38,2.19-31.68,6.57c-7.31,4.38-10.96,10.71-10.96,19c0,5.79,2.4,10.4,7.21,13.84
		c4.81,3.44,10.91,5.98,18.32,7.62c7.41,1.64,17.72,3.48,30.93,5.51c0.6,0.16,1.2,0.28,1.8,0.35c0.6,0.08,1.2,0.12,1.8,0.12
		c0.4,0.16,0.9,0.27,1.5,0.35c0.6,0.08,1.1,0.12,1.5,0.12c19.42,2.97,35.54,6.42,48.35,10.32c12.81,3.91,23.67,10.91,32.58,21
		c8.91,10.09,13.37,23.97,13.37,41.64c0,15.95-4.5,29.64-13.51,41.05c-9.01,11.42-22.13,20.1-39.34,26.04
		c-17.22,5.94-37.84,8.91-61.87,8.91C1817.24,722.92,1798.77,720.73,1782.65,716.35z"/>
	<path class="st5" d="M2027.98,712.6c-17.42-6.88-30.74-17.09-39.94-30.62c-9.21-13.53-13.82-29.75-13.82-48.68v-70.61
		c0-18.92,4.6-35.23,13.82-48.91c9.21-13.68,22.52-24.05,39.94-31.08s38.44-10.56,63.07-10.56c20.82,0,38.54,2.35,53.16,7.04
		c14.61,4.69,26.43,12,35.44,21.93c9.01,9.93,14.91,22.17,17.72,36.71l-63.07,15.95c-2.81-10.48-7.76-18.33-14.87-23.58
		c-7.11-5.24-16.57-7.86-28.38-7.86c-15.02,0-26.78,3.56-35.29,10.67c-8.51,7.12-12.76,17.4-12.76,30.85v68.27
		c0,12.98,4.21,22.95,12.61,29.91c8.41,6.96,20.22,10.44,35.44,10.44c11.81,0,21.32-2.54,28.53-7.62
		c7.21-5.08,12.11-12.63,14.72-22.64l63.37,16.89c-3,14.39-8.91,26.36-17.72,35.89c-8.81,9.54-20.68,16.58-35.59,21.11
		c-14.92,4.53-32.69,6.8-53.31,6.8C2066.42,722.92,2045.4,719.48,2027.98,712.6z"/>
	<path class="st5" d="M2229.91,704.86c-15.22-12.04-22.82-30.1-22.82-54.19c0-25.18,8.76-44.22,26.28-57.12
		c17.52-12.9,43.5-19.35,77.94-19.35h57.36l4.2,43.17h-60.37c-13.62,0-23.88,2.78-30.78,8.33c-6.91,5.55-10.36,13.88-10.36,24.98
		c0,9.38,3.55,16.34,10.66,20.88c7.1,4.54,17.77,6.8,31.99,6.8c17.42,0,30.53-2.35,39.34-7.04c8.81-4.69,13.21-11.65,13.21-20.88
		l6.01,27.92c-1.8,9.85-6.01,18.1-12.61,24.75c-6.61,6.65-15.17,11.61-25.68,14.9s-22.67,4.93-36.49,4.93
		C2267.75,722.92,2245.12,716.9,2229.91,704.86z M2366.56,554.01c0-10.79-3.96-19.2-11.86-25.22c-7.91-6.02-19.17-9.03-33.79-9.03
		c-10.41,0-19.72,1.88-27.93,5.63c-8.21,3.75-14.72,8.91-19.52,15.48l-55.56-15.48c6.41-16.89,18.57-30.03,36.49-39.41
		c17.92-9.38,40.19-14.08,66.82-14.08c23.02,0,42.75,3.21,59.17,9.62c16.42,6.41,28.98,15.68,37.69,27.8
		c8.71,12.12,13.06,26.71,13.06,43.75V719.4h-64.57V554.01z"/>
	<path class="st5" d="M2472.09,475.89h68.78V818.4h-68.78V475.89z M2563.84,711.89c-12.31-7.35-21.38-17.59-27.18-30.73l4.2-44.57
		c0,7.98,1.65,14.74,4.96,20.29c3.3,5.55,8.11,9.78,14.42,12.67c6.31,2.9,13.96,4.34,22.97,4.34c13.61,0,24.18-3.56,31.69-10.67
		c7.51-7.11,11.26-17.32,11.26-30.61v-70.38c0-13.14-3.75-23.3-11.26-30.5c-7.51-7.19-18.07-10.79-31.69-10.79
		c-9.01,0-16.67,1.41-22.97,4.22c-6.31,2.82-11.11,7-14.42,12.55c-3.3,5.55-4.96,12.24-4.96,20.06l-6.31-41.29
		c7.61-14.23,17.92-25.22,30.93-32.96c13.01-7.74,27.53-11.61,43.55-11.61c18.02,0,33.38,3.4,46.1,10.2
		c12.71,6.8,22.42,16.74,29.13,29.79c6.71,13.06,10.06,28.9,10.06,47.5v76.01c0,18.46-3.45,34.25-10.36,47.39
		c-6.91,13.14-16.87,23.11-29.88,29.91c-13.02,6.8-28.73,10.2-47.15,10.2C2590.51,722.92,2576.15,719.25,2563.84,711.89z"/>
	<path class="st5" d="M2775.98,712.01c-17.52-7.27-30.93-17.87-40.24-31.79c-9.31-13.92-13.96-30.89-13.96-50.91v-59.35
		c0-20.64,4.5-38.28,13.51-52.9c9.01-14.62,22.02-25.77,39.04-33.43c17.02-7.66,37.64-11.5,61.87-11.5c23.43,0,43.4,4.07,59.92,12.2
		c16.52,8.13,29.13,20.1,37.84,35.89c8.71,15.8,13.06,34.64,13.06,56.54v41.76h-175.99v-40.58h111.12l0.3-15.25
		c-0.2-13.14-4.46-23.54-12.76-31.2c-8.31-7.66-19.47-11.49-33.49-11.49c-15.82,0-28.03,4.19-36.64,12.55
		c-8.61,8.37-12.91,19.98-12.91,34.84v63.34c0,13.92,4.6,24.63,13.82,32.14c9.21,7.51,22.12,11.26,38.74,11.26
		c11.21,0,20.57-2.15,28.08-6.45c7.51-4.3,13.06-10.59,16.67-18.88l59.47,16.42c-5.81,19.24-17.47,33.66-34.99,43.28
		c-17.52,9.62-40.3,14.43-68.33,14.43C2814.87,722.92,2793.5,719.28,2775.98,712.01z"/>
	<path class="st5" d="M3018.15,716.35c-16.12-4.38-29.39-11.03-39.79-19.94c-10.41-8.91-17.82-19.62-22.22-32.14l57.66-22.05
		c6.01,10.48,14.31,18.5,24.93,24.05c10.61,5.55,22.92,8.33,36.94,8.33c15.62,0,27.58-2.38,35.89-7.16
		c8.31-4.77,12.46-11.38,12.46-19.82c0-6.25-2.4-11.18-7.21-14.78c-4.81-3.6-10.81-6.29-18.02-8.09c-7.21-1.8-17.22-3.71-30.03-5.75
		c-1.8-0.31-3.75-0.59-5.86-0.82c-2.1-0.23-4.26-0.66-6.46-1.29c-0.6,0-1.15-0.08-1.65-0.23c-0.5-0.15-1.15-0.31-1.95-0.47
		c-17.62-2.97-32.44-6.57-44.45-10.79c-12.01-4.22-21.98-11.06-29.88-20.53c-7.91-9.46-11.86-22.17-11.86-38.12
		c0-15.79,4.21-29.24,12.61-40.35c8.41-11.1,20.62-19.59,36.64-25.45c16.02-5.86,35.34-8.8,57.96-8.8c19.02,0,35.89,2.07,50.61,6.22
		c14.72,4.15,26.98,10.25,36.79,18.3c9.81,8.06,17.12,17.95,21.92,29.68l-58.26,21.58c-5.01-8.91-11.86-15.72-20.57-20.41
		c-8.71-4.69-18.97-7.04-30.78-7.04c-13.81,0-24.38,2.19-31.68,6.57c-7.31,4.38-10.96,10.71-10.96,19c0,5.79,2.4,10.4,7.21,13.84
		c4.81,3.44,10.91,5.98,18.32,7.62c7.41,1.64,17.72,3.48,30.93,5.51c0.6,0.16,1.2,0.28,1.8,0.35c0.6,0.08,1.2,0.12,1.8,0.12
		c0.4,0.16,0.9,0.27,1.5,0.35c0.6,0.08,1.1,0.12,1.5,0.12c19.42,2.97,35.54,6.42,48.35,10.32c12.81,3.91,23.67,10.91,32.58,21
		c8.91,10.09,13.37,23.97,13.37,41.64c0,15.95-4.5,29.64-13.51,41.05c-9.01,11.42-22.13,20.1-39.34,26.04
		c-17.22,5.94-37.84,8.91-61.87,8.91C3052.74,722.92,3034.27,720.73,3018.15,716.35z"/>
</g>
<g id="Alongi">
	<path class="st5" d="M916.99,0.48h51.63l131.74,337h-71.51L942.8,89.94l-86.05,247.53h-71.51L916.99,0.48z M857.05,223.91h174.77
		v50.06H857.05V223.91z"/>
	<path class="st5" d="M1180.58,267.94c0,6.03,1.88,10.7,5.64,14.02c3.76,3.32,9,4.98,15.73,4.98h17.21v50.76h-32.04
		c-23.54,0-41.84-5.56-54.89-16.69c-13.06-11.12-19.58-26.81-19.58-47.05V0.48h67.95V267.94z"/>
	<path class="st5" d="M1280.68,330.87c-16.42-6.72-28.98-16.53-37.68-29.44c-8.71-12.9-13.06-28.39-13.06-46.47v-76.95
		c0-17.92,4.35-33.26,13.06-46.01c8.7-12.75,21.26-22.44,37.68-29.09c16.42-6.64,36.2-9.97,59.34-9.97
		c23.14,0,42.97,3.32,59.49,9.97c16.51,6.65,29.08,16.34,37.68,29.09c8.61,12.75,12.91,28.08,12.91,46.01v77.64
		c0,17.93-4.3,33.26-12.91,46.01c-8.6,12.75-21.17,22.48-37.68,29.2c-16.52,6.72-36.35,10.08-59.49,10.08
		C1316.88,340.95,1297.1,337.59,1280.68,330.87z M1371.48,281.27c7.32-6.41,10.98-15.56,10.98-27.47v-74.17
		c0-11.59-3.66-20.55-10.98-26.89c-7.32-6.33-17.8-9.5-31.45-9.5c-13.45,0-23.89,3.17-31.3,9.5c-7.42,6.34-11.13,15.3-11.13,26.89
		v74.17c0,11.9,3.66,21.06,10.98,27.47c7.32,6.41,17.8,9.62,31.45,9.62C1353.67,290.89,1364.16,287.68,1371.48,281.27z"/>
	<path class="st5" d="M1484.63,96.89h68.25v240.58h-68.25V96.89z M1639.23,180.33c0-12.2-3.76-21.51-11.28-27.93
		c-7.52-6.41-18.4-9.62-32.64-9.62c-13.85,0-24.38,3.09-31.6,9.27c-7.22,6.18-10.83,15.15-10.83,26.89l-6.23-40.33
		c7.71-14.99,18.1-26.34,31.16-34.07c13.06-7.72,28.19-11.59,45.4-11.59c26.71,0,47.37,6.99,62.01,20.98
		c14.64,13.99,21.96,33.88,21.96,59.68v163.86h-67.95V180.33z"/>
	<path class="st5" d="M1778.94,331.45c-12.76-6.64-22.4-16.3-28.93-28.97c-6.53-12.67-9.79-27.97-9.79-45.89v-78.11
		c0-18.08,3.31-33.53,9.94-46.35c6.63-12.82,16.17-22.56,28.63-29.2c12.46-6.64,27.49-9.97,45.1-9.97
		c15.82,0,30.16,3.79,43.02,11.36c12.86,7.57,23.14,18.16,30.86,31.75l-6.23,41.49c0-7.88-1.58-14.45-4.75-19.7
		c-3.17-5.25-7.82-9.39-13.95-12.4c-6.13-3.01-13.65-4.52-22.55-4.52c-13.45,0-23.99,3.56-31.6,10.66
		c-7.62,7.11-11.42,16.92-11.42,29.44v73.24c0,12.36,3.75,21.9,11.28,28.62c7.51,6.72,18.1,10.08,31.75,10.08
		c8.9,0,16.42-1.39,22.55-4.17c6.13-2.78,10.78-6.84,13.95-12.17c3.16-5.33,4.75-11.78,4.75-19.35l4.15,42.41
		c-5.34,12.83-14.24,22.99-26.71,30.48c-12.46,7.49-27.2,11.24-44.21,11.24C1806.98,341.42,1791.7,338.09,1778.94,331.45z
		 M1775.82,420.1c-17.02-10.12-27.4-24.99-31.16-44.62l64.69-15.53c2.37,8.96,7.02,15.8,13.95,20.51
		c6.92,4.71,15.53,7.07,25.81,7.07c13.45,0,23.89-3.17,31.3-9.5c7.42-6.34,11.13-15.22,11.13-26.65V96.89h68.25v251.47
		c0,18.54-4.55,34.26-13.65,47.17c-9.1,12.9-22.25,22.75-39.46,29.55c-17.21,6.8-37.98,10.2-62.31,10.2
		C1815.68,435.28,1792.83,430.22,1775.82,420.1z"/>
	<path class="st5" d="M1997.88,1.4h67.36v52.61h-67.36V1.4z M1997.88,96.89h67.36v240.58h-67.36V96.89z"/>
</g>
</svg>
